<mxfile host="app.diagrams.net" modified="2020-10-03T15:28:03.394Z" agent="5.0 (Macintosh; Intel Mac OS X 10_15_6) AppleWebKit/605.1.15 (KHTML, like Gecko) Version/13.1.2 Safari/605.1.15" etag="4jahabVy8qx0OG1yCb95" version="13.7.7" type="github">
  <diagram id="Dpjhat5DAAm6MTQmkkUi" name="Page-1">
    <mxGraphModel dx="946" dy="662" grid="1" gridSize="10" guides="1" tooltips="1" connect="1" arrows="1" fold="1" page="1" pageScale="1" pageWidth="827" pageHeight="1169" math="0" shadow="0">
      <root>
        <mxCell id="0" />
        <mxCell id="1" parent="0" />
        <mxCell id="O0ogU2uRBSD9ushxBEob-12" style="edgeStyle=orthogonalEdgeStyle;rounded=0;orthogonalLoop=1;jettySize=auto;html=1;exitX=1;exitY=0.5;exitDx=0;exitDy=0;" edge="1" parent="1" source="O0ogU2uRBSD9ushxBEob-1" target="O0ogU2uRBSD9ushxBEob-2">
          <mxGeometry relative="1" as="geometry" />
        </mxCell>
        <mxCell id="O0ogU2uRBSD9ushxBEob-22" value="requests, files" style="edgeLabel;html=1;align=center;verticalAlign=middle;resizable=0;points=[];" vertex="1" connectable="0" parent="O0ogU2uRBSD9ushxBEob-12">
          <mxGeometry x="-0.2778" y="-2" relative="1" as="geometry">
            <mxPoint as="offset" />
          </mxGeometry>
        </mxCell>
        <mxCell id="O0ogU2uRBSD9ushxBEob-1" value="Client" style="rounded=0;whiteSpace=wrap;html=1;" vertex="1" parent="1">
          <mxGeometry x="50" y="310" width="120" height="60" as="geometry" />
        </mxCell>
        <mxCell id="O0ogU2uRBSD9ushxBEob-13" style="edgeStyle=orthogonalEdgeStyle;rounded=0;orthogonalLoop=1;jettySize=auto;html=1;exitX=0;exitY=0.75;exitDx=0;exitDy=0;entryX=1;entryY=0.75;entryDx=0;entryDy=0;" edge="1" parent="1" source="O0ogU2uRBSD9ushxBEob-2" target="O0ogU2uRBSD9ushxBEob-1">
          <mxGeometry relative="1" as="geometry" />
        </mxCell>
        <mxCell id="O0ogU2uRBSD9ushxBEob-23" value="files, approvals" style="edgeLabel;html=1;align=center;verticalAlign=middle;resizable=0;points=[];" vertex="1" connectable="0" parent="O0ogU2uRBSD9ushxBEob-13">
          <mxGeometry x="0.3" y="1" relative="1" as="geometry">
            <mxPoint as="offset" />
          </mxGeometry>
        </mxCell>
        <mxCell id="O0ogU2uRBSD9ushxBEob-14" style="edgeStyle=orthogonalEdgeStyle;rounded=0;orthogonalLoop=1;jettySize=auto;html=1;exitX=1;exitY=0.25;exitDx=0;exitDy=0;entryX=0;entryY=0.5;entryDx=0;entryDy=0;" edge="1" parent="1" source="O0ogU2uRBSD9ushxBEob-2" target="O0ogU2uRBSD9ushxBEob-3">
          <mxGeometry relative="1" as="geometry" />
        </mxCell>
        <mxCell id="O0ogU2uRBSD9ushxBEob-19" value="requests" style="edgeLabel;html=1;align=center;verticalAlign=middle;resizable=0;points=[];" vertex="1" connectable="0" parent="O0ogU2uRBSD9ushxBEob-14">
          <mxGeometry x="-0.1179" y="-1" relative="1" as="geometry">
            <mxPoint as="offset" />
          </mxGeometry>
        </mxCell>
        <mxCell id="O0ogU2uRBSD9ushxBEob-16" style="edgeStyle=orthogonalEdgeStyle;rounded=0;orthogonalLoop=1;jettySize=auto;html=1;exitX=1;exitY=0.75;exitDx=0;exitDy=0;entryX=0.75;entryY=0;entryDx=0;entryDy=0;" edge="1" parent="1" source="O0ogU2uRBSD9ushxBEob-2" target="O0ogU2uRBSD9ushxBEob-4">
          <mxGeometry relative="1" as="geometry">
            <Array as="points">
              <mxPoint x="470" y="360" />
              <mxPoint x="670" y="360" />
            </Array>
          </mxGeometry>
        </mxCell>
        <mxCell id="O0ogU2uRBSD9ushxBEob-21" value="requests" style="edgeLabel;html=1;align=center;verticalAlign=middle;resizable=0;points=[];" vertex="1" connectable="0" parent="O0ogU2uRBSD9ushxBEob-16">
          <mxGeometry x="-0.4109" y="-2" relative="1" as="geometry">
            <mxPoint as="offset" />
          </mxGeometry>
        </mxCell>
        <mxCell id="O0ogU2uRBSD9ushxBEob-2" value="Namenode" style="rounded=0;whiteSpace=wrap;html=1;" vertex="1" parent="1">
          <mxGeometry x="340" y="310" width="120" height="60" as="geometry" />
        </mxCell>
        <mxCell id="O0ogU2uRBSD9ushxBEob-15" style="edgeStyle=orthogonalEdgeStyle;rounded=0;orthogonalLoop=1;jettySize=auto;html=1;exitX=0.5;exitY=1;exitDx=0;exitDy=0;entryX=1;entryY=0.5;entryDx=0;entryDy=0;" edge="1" parent="1" source="O0ogU2uRBSD9ushxBEob-3" target="O0ogU2uRBSD9ushxBEob-2">
          <mxGeometry relative="1" as="geometry" />
        </mxCell>
        <mxCell id="O0ogU2uRBSD9ushxBEob-18" value="only files" style="edgeLabel;html=1;align=center;verticalAlign=middle;resizable=0;points=[];" vertex="1" connectable="0" parent="O0ogU2uRBSD9ushxBEob-15">
          <mxGeometry x="-0.4167" y="-28" relative="1" as="geometry">
            <mxPoint x="-28" y="30" as="offset" />
          </mxGeometry>
        </mxCell>
        <mxCell id="O0ogU2uRBSD9ushxBEob-3" value="Datanode1" style="rounded=0;whiteSpace=wrap;html=1;" vertex="1" parent="1">
          <mxGeometry x="580" y="210" width="120" height="60" as="geometry" />
        </mxCell>
        <mxCell id="O0ogU2uRBSD9ushxBEob-17" style="edgeStyle=orthogonalEdgeStyle;rounded=0;orthogonalLoop=1;jettySize=auto;html=1;exitX=0.5;exitY=0;exitDx=0;exitDy=0;entryX=1;entryY=1;entryDx=0;entryDy=0;" edge="1" parent="1" source="O0ogU2uRBSD9ushxBEob-4" target="O0ogU2uRBSD9ushxBEob-2">
          <mxGeometry relative="1" as="geometry" />
        </mxCell>
        <mxCell id="O0ogU2uRBSD9ushxBEob-20" value="only files" style="edgeLabel;html=1;align=center;verticalAlign=middle;resizable=0;points=[];" vertex="1" connectable="0" parent="O0ogU2uRBSD9ushxBEob-17">
          <mxGeometry x="-0.0087" y="1" relative="1" as="geometry">
            <mxPoint as="offset" />
          </mxGeometry>
        </mxCell>
        <mxCell id="O0ogU2uRBSD9ushxBEob-4" value="Datanode2" style="rounded=0;whiteSpace=wrap;html=1;" vertex="1" parent="1">
          <mxGeometry x="580" y="430" width="120" height="60" as="geometry" />
        </mxCell>
        <mxCell id="O0ogU2uRBSD9ushxBEob-10" style="edgeStyle=orthogonalEdgeStyle;rounded=0;orthogonalLoop=1;jettySize=auto;html=1;entryX=0;entryY=0.25;entryDx=0;entryDy=0;" edge="1" parent="1" source="O0ogU2uRBSD9ushxBEob-7" target="O0ogU2uRBSD9ushxBEob-8">
          <mxGeometry relative="1" as="geometry" />
        </mxCell>
        <mxCell id="O0ogU2uRBSD9ushxBEob-11" style="edgeStyle=orthogonalEdgeStyle;rounded=0;orthogonalLoop=1;jettySize=auto;html=1;entryX=0.25;entryY=0;entryDx=0;entryDy=0;" edge="1" parent="1" source="O0ogU2uRBSD9ushxBEob-7" target="O0ogU2uRBSD9ushxBEob-9">
          <mxGeometry relative="1" as="geometry" />
        </mxCell>
        <mxCell id="O0ogU2uRBSD9ushxBEob-7" value="&lt;h1&gt;Namenode Initialization&lt;/h1&gt;&lt;div&gt;1. Namenode starts script&lt;/div&gt;&lt;div&gt;Namenode doesn&#39;t know about datanodes and about client&lt;/div&gt;" style="text;html=1;strokeColor=none;fillColor=none;spacing=5;spacingTop=-20;whiteSpace=wrap;overflow=hidden;rounded=0;" vertex="1" parent="1">
          <mxGeometry x="130" y="480" width="190" height="120" as="geometry" />
        </mxCell>
        <mxCell id="O0ogU2uRBSD9ushxBEob-26" style="edgeStyle=orthogonalEdgeStyle;rounded=0;orthogonalLoop=1;jettySize=auto;html=1;entryX=0.289;entryY=0.008;entryDx=0;entryDy=0;entryPerimeter=0;" edge="1" parent="1" source="O0ogU2uRBSD9ushxBEob-8" target="O0ogU2uRBSD9ushxBEob-24">
          <mxGeometry relative="1" as="geometry" />
        </mxCell>
        <mxCell id="O0ogU2uRBSD9ushxBEob-8" value="&lt;h1&gt;Datanode Initialization&lt;/h1&gt;&lt;p&gt;1. Datanode starts script&lt;/p&gt;&lt;p&gt;&lt;br&gt;&lt;/p&gt;" style="text;html=1;strokeColor=none;fillColor=none;spacing=5;spacingTop=-20;whiteSpace=wrap;overflow=hidden;rounded=0;" vertex="1" parent="1">
          <mxGeometry x="400" y="540" width="190" height="120" as="geometry" />
        </mxCell>
        <mxCell id="O0ogU2uRBSD9ushxBEob-25" style="edgeStyle=orthogonalEdgeStyle;rounded=0;orthogonalLoop=1;jettySize=auto;html=1;entryX=0.011;entryY=0.583;entryDx=0;entryDy=0;entryPerimeter=0;" edge="1" parent="1" source="O0ogU2uRBSD9ushxBEob-9" target="O0ogU2uRBSD9ushxBEob-24">
          <mxGeometry relative="1" as="geometry" />
        </mxCell>
        <mxCell id="O0ogU2uRBSD9ushxBEob-9" value="&lt;h1&gt;Client Initialization&lt;/h1&gt;&lt;div&gt;&lt;br&gt;&lt;/div&gt;" style="text;html=1;strokeColor=none;fillColor=none;spacing=5;spacingTop=-20;whiteSpace=wrap;overflow=hidden;rounded=0;" vertex="1" parent="1">
          <mxGeometry x="190" y="740" width="190" height="120" as="geometry" />
        </mxCell>
        <mxCell id="O0ogU2uRBSD9ushxBEob-24" value="&lt;h1&gt;Cloud directory initialization&lt;/h1&gt;&lt;p&gt;Lorem ipsum dolor sit amet, consectetur adipisicing elit, sed do eiusmod tempor incididunt ut labore et dolore magna aliqua.&lt;/p&gt;" style="text;html=1;strokeColor=none;fillColor=none;spacing=5;spacingTop=-20;whiteSpace=wrap;overflow=hidden;rounded=0;" vertex="1" parent="1">
          <mxGeometry x="450" y="720" width="190" height="120" as="geometry" />
        </mxCell>
      </root>
    </mxGraphModel>
  </diagram>
</mxfile>
